{
  "accessors" : {
    "accessor_21" : {
      "bufferView" : "bufferView_29",
      "byteOffset" : 0,
      "byteStride" : 0,
      "componentType" : 5123,
      "count" : 36,
      "type" : "SCALAR"
    },
    "accessor_23" : {
      "bufferView" : "bufferView_30",
      "byteOffset" : 0,
      "byteStride" : 12,
      "componentType" : 5126,
      "count" : 24,
      "type" : "VEC3",
      "max" : [ 0.5, 0.5, 0.5 ],
      "min" : [ -0.5, -0.5, -0.5 ]
    },
    "accessor_25" : {
      "bufferView" : "bufferView_30",
      "byteOffset" : 288,
      "byteStride" : 12,
      "componentType" : 5126,
      "count" : 24,
      "type" : "VEC3",
      "max" : [ 1.0, 1.0, 1.0 ],
      "min" : [ -1.0, -1.0, -1.0 ]
    }
  },
  "animations" : { },
  "asset" : {
    "generator" : "collada2gltf@027f74366341d569dea42e9a68b7104cc3892054",
    "premultipliedAlpha" : true,
    "profile" : {
      "api" : "WebGL",
      "version" : "1.0.2"
    },
    "version" : "1.0"
  },
  "buffers" : {
    "Box" : {
      "uri" : "Box.bin",
      "byteLength" : 648,
      "type" : "arraybuffer"
    }
  },
  "bufferViews" : {
    "bufferView_29" : {
      "buffer" : "Box",
      "byteOffset" : 0,
      "byteLength" : 72,
      "target" : 34963
    },
    "bufferView_30" : {
      "buffer" : "Box",
      "byteOffset" : 72,
      "byteLength" : 576,
      "target" : 34962
    }
  },
  "materials" : {
    "Effect-Red" : {
      "name" : "Red",
      "technique" : "technique0",
      "values" : {
        "diffuse" : [ 0.8, 0, 0, 1 ],
        "shininess" : 256,
        "specular" : [ 0.2, 0.2, 0.2, 1 ]
      }
    }
  },
  "meshes" : {
    "Geometry-mesh002" : {
      "name" : "Mesh",
      "primitives" : [ {
        "attributes" : {
          "NORMAL" : "accessor_25",
          "POSITION" : "accessor_23"
        },
        "indices" : "accessor_21",
        "material" : "Effect-Red",
        "mode" : 4
      } ]
    }
  },
  "nodes" : {
    "Geometry-mesh002Node" : {
      "name" : "Mesh",
      "children" : [ ],
      "matrix" : [ 1.0, 0.0, 0.0, 0.0, 0.0, 1.0, 0.0, 0.0, 0.0, 0.0, 1.0, 0.0, 0.0, 0.0, 0.0, 1.0 ],
      "meshes" : [ "Geometry-mesh002" ]
    },
    "node_1" : {
      "name" : "Y_UP_Transform",
      "children" : [ "Geometry-mesh002Node" ],
      "matrix" : [ 1.0, 0.0, 0.0, 0.0, 0.0, 0.0, -1.0, 0.0, 0.0, 1.0, 0.0, 0.0, 0.0, 0.0, 0.0, 1.0 ]
    }
  },
  "programs" : {
    "program_0" : {
      "attributes" : [ "a_normal", "a_position" ],
      "fragmentShader" : "Box0FS",
      "vertexShader" : "Box0VS"
    }
  },
  "scene" : "defaultScene",
  "scenes" : {
    "defaultScene" : {
      "nodes" : [ "node_1" ]
    }
  },
  "shaders" : {
    "Box0FS" : {
      "uri" : "Box0FS.glsl",
      "type" : 35632
    },
    "Box0VS" : {
      "uri" : "Box0VS.glsl",
      "type" : 35633
    }
  },
  "skins" : { },
  "techniques" : {
    "technique0" : {
      "parameters" : {
        "diffuse" : {
          "type" : 35666
        },
        "modelViewMatrix" : {
          "type" : 35676,
          "semantic" : "MODELVIEW"
        },
        "normal" : {
          "type" : 35665,
          "semantic" : "NORMAL"
        },
        "normalMatrix" : {
          "type" : 35675,
          "semantic" : "MODELVIEWINVERSETRANSPOSE"
        },
        "position" : {
          "type" : 35665,
          "semantic" : "POSITION"
        },
        "projectionMatrix" : {
          "type" : 35676,
          "semantic" : "PROJECTION"
        },
        "shininess" : {
          "type" : 5126
        },
        "specular" : {
          "type" : 35666
        }
      },
      "attributes" : {
        "a_normal" : "normal",
        "a_position" : "position"
      },
      "program" : "program_0",
      "uniforms" : {
        "u_diffuse" : "diffuse",
        "u_modelViewMatrix" : "modelViewMatrix",
        "u_normalMatrix" : "normalMatrix",
        "u_projectionMatrix" : "projectionMatrix",
        "u_shininess" : "shininess",
        "u_specular" : "specular"
      },
      "states" : {
        "enable" : [ 2929, 2884 ]
      }
    }
  }
}