{
  "accessors" : [ {
    "bufferView" : 0,
    "byteOffset" : 0,
    "componentType" : 5123,
    "count" : 36,
    "type" : "SCALAR",
    "max" : [ 23 ],
    "min" : [ 0 ]
  }, {
    "bufferView" : 1,
    "byteOffset" : 0,
    "componentType" : 5126,
    "count" : 24,
    "type" : "VEC3",
    "max" : [ 1.0, 1.0, 1.0 ],
    "min" : [ -1.0, -1.0, -1.0 ]
  }, {
    "bufferView" : 1,
    "byteOffset" : 288,
    "componentType" : 5126,
    "count" : 24,
    "type" : "VEC3",
    "max" : [ 0.5, 0.5, 0.5 ],
    "min" : [ -0.5, -0.5, -0.5 ]
  } ],
  "asset" : {
    "generator" : "COLLADA2GLTF",
    "version" : "2.0"
  },
  "buffers" : [ {
    "uri" : "data:application/gltf-buffer;base64,",
    "byteLength" : 648
  } ],
  "bufferViews" : [ {
    "buffer" : 0,
    "byteOffset" : 576,
    "byteLength" : 72,
    "target" : 34963
  }, {
    "buffer" : 0,
    "byteOffset" : 0,
    "byteLength" : 576,
    "byteStride" : 12,
    "target" : 34962
  } ],
  "materials" : [ {
    "name" : "Red",
    "pbrMetallicRoughness" : {
      "baseColorFactor" : [ 0.8, 0.0, 0.0, 1.0 ],
      "metallicFactor" : 0.0
    }
  } ],
  "meshes" : [ {
    "name" : "Mesh",
    "primitives" : [ {
      "attributes" : {
        "NORMAL" : 1,
        "POSITION" : 2
      },
      "indices" : 0,
      "material" : 0,
      "mode" : 4
    } ]
  } ],
  "nodes" : [ {
    "children" : [ 1 ],
    "matrix" : [ 1.0, 0.0, 0.0, 0.0, 0.0, 0.0, -1.0, 0.0, 0.0, 1.0, 0.0, 0.0, 0.0, 0.0, 0.0, 1.0 ]
  }, {
    "mesh" : 0
  } ],
  "scene" : 0,
  "scenes" : [ {
    "nodes" : [ 0 ]
  } ]
}